<svg width="1920" height="240" viewBox="0 0 1920 240" xmlns="http://www.w3.org/2000/svg"><path d="M1920,240C1612,246,309,245.16666666666666,0,240C-309,234.83333333333334,43.5,214,66,209C88.5,204,112.16666666666667,208,135,210C157.83333333333334,212,180.16666666666666,221,203,221C225.83333333333334,221,249,208.66666666666666,272,210C295,211.33333333333334,317.8333333333333,227.83333333333334,341,229C364.1666666666667,230.16666666666666,388,216.5,411,217C434,217.5,456.1666666666667,232.5,479,232C501.8333333333333,231.5,525.5,217.83333333333334,548,214C570.5,210.16666666666666,591.6666666666666,205.16666666666666,614,209C636.3333333333334,212.83333333333334,658.6666666666666,234.33333333333334,682,237C705.3333333333334,239.66666666666666,731,228.66666666666666,754,225C777,221.33333333333334,797.3333333333334,216.33333333333334,820,215C842.6666666666666,213.66666666666666,867,216.5,890,217C913,217.5,935.3333333333334,216.33333333333334,958,218C980.6666666666666,219.66666666666666,1003.1666666666666,224.33333333333334,1026,227C1048.8333333333333,229.66666666666666,1072,234.16666666666666,1095,234C1118,233.83333333333334,1141,231,1164,226C1187,221,1210,207.66666666666666,1233,204C1256,200.33333333333334,1279.1666666666667,200.5,1302,204C1324.8333333333333,207.5,1347.6666666666667,219.5,1370,225C1392.3333333333333,230.5,1413,236.83333333333334,1436,237C1459,237.16666666666666,1485,229.66666666666666,1508,226C1531,222.33333333333334,1551.1666666666667,214.5,1574,215C1596.8333333333333,215.5,1622,228.5,1645,229C1668,229.5,1689.5,220.16666666666666,1712,218C1734.5,215.83333333333334,1757.3333333333333,218.33333333333334,1780,216C1802.6666666666667,213.66666666666666,1824.6666666666667,200,1848,204C1871.3333333333333,208,2228,234,1920,240C1612,246,309,245.16666666666666,0,240" fill="#df6688"/></svg>