<?xml version="1.0" standalone="no"?><svg xmlns="http://www.w3.org/2000/svg" viewBox="0 0 1440 320"><path fill="#0099ff" fill-opacity="1" d="M0,320L6.2,272C12.3,224,25,128,37,85.3C49.2,43,62,53,74,90.7C86.2,128,98,192,111,202.7C123.1,213,135,171,148,154.7C160,139,172,149,185,154.7C196.9,160,209,160,222,176C233.8,192,246,224,258,240C270.8,256,283,256,295,213.3C307.7,171,320,85,332,85.3C344.6,85,357,171,369,192C381.5,213,394,171,406,170.7C418.5,171,431,213,443,229.3C455.4,245,468,235,480,213.3C492.3,192,505,160,517,133.3C529.2,107,542,85,554,106.7C566.2,128,578,192,591,213.3C603.1,235,615,213,628,197.3C640,181,652,171,665,160C676.9,149,689,139,702,165.3C713.8,192,726,256,738,240C750.8,224,763,128,775,90.7C787.7,53,800,75,812,112C824.6,149,837,203,849,218.7C861.5,235,874,213,886,208C898.5,203,911,213,923,229.3C935.4,245,948,267,960,250.7C972.3,235,985,181,997,170.7C1009.2,160,1022,192,1034,186.7C1046.2,181,1058,139,1071,133.3C1083.1,128,1095,160,1108,176C1120,192,1132,192,1145,170.7C1156.9,149,1169,107,1182,90.7C1193.8,75,1206,85,1218,90.7C1230.8,96,1243,96,1255,112C1267.7,128,1280,160,1292,165.3C1304.6,171,1317,149,1329,160C1341.5,171,1354,213,1366,218.7C1378.5,224,1391,192,1403,170.7C1415.4,149,1428,139,1434,133.3L1440,128L1440,320L1433.8,320C1427.7,320,1415,320,1403,320C1390.8,320,1378,320,1366,320C1353.8,320,1342,320,1329,320C1316.9,320,1305,320,1292,320C1280,320,1268,320,1255,320C1243.1,320,1231,320,1218,320C1206.2,320,1194,320,1182,320C1169.2,320,1157,320,1145,320C1132.3,320,1120,320,1108,320C1095.4,320,1083,320,1071,320C1058.5,320,1046,320,1034,320C1021.5,320,1009,320,997,320C984.6,320,972,320,960,320C947.7,320,935,320,923,320C910.8,320,898,320,886,320C873.8,320,862,320,849,320C836.9,320,825,320,812,320C800,320,788,320,775,320C763.1,320,751,320,738,320C726.2,320,714,320,702,320C689.2,320,677,320,665,320C652.3,320,640,320,628,320C615.4,320,603,320,591,320C578.5,320,566,320,554,320C541.5,320,529,320,517,320C504.6,320,492,320,480,320C467.7,320,455,320,443,320C430.8,320,418,320,406,320C393.8,320,382,320,369,320C356.9,320,345,320,332,320C320,320,308,320,295,320C283.1,320,271,320,258,320C246.2,320,234,320,222,320C209.2,320,197,320,185,320C172.3,320,160,320,148,320C135.4,320,123,320,111,320C98.5,320,86,320,74,320C61.5,320,49,320,37,320C24.6,320,12,320,6,320L0,320Z"></path></svg>