<svg xmlns="http://www.w3.org/2000/svg" version="1.1" xmlns:xlink="http://www.w3.org/1999/xlink" xmlns:svgjs="http://svgjs.dev/svgjs" viewBox="0 0 2400 800" opacity="1"><g fill="hsla(0, 0%, 100%, 1.00)" transform="matrix(1,0,0,1,5.82373046875,328.7098083496094)"><path d="M-10,10C75.41666666666666,11.041666666666666,231.25,20,400,15C568.75,10,633.3333333333333,-17.541666666666668,800,-14C966.6666666666667,-10.458333333333332,1033.3333333333333,30.541666666666668,1200,32C1366.6666666666667,33.458333333333336,1433.3333333333333,-6.791666666666667,1600,-7C1766.6666666666667,-7.208333333333333,1833.3333333333333,29.541666666666668,2000,31C2166.6666666666665,32.458333333333336,2264.5833333333335,-76.875,2400,0C2535.4166666666665,76.875,3254.1666666666665,212.5,2650,400C2045.8333333333335,587.5,156.25,795.8333333333334,-500,900" transform="matrix(1,0,0,1,0,35)" opacity="NaN"></path></g></svg>